/* XPM */
static char *a95e074483a1a464621051ee9c75ed09_resized[] = {
/* columns rows colors chars-per-pixel */
"40 40 15 1 ",
"  c #3E2B1B",
". c #422E1D",
"X c #45311E",
"o c #48331F",
"O c #422F20",
"+ c #463221",
"@ c #4B3522",
"# c #4E3824",
"$ c #4F3B28",
"% c #503721",
"& c #523B26",
"* c #543E28",
"= c #593F29",
"- c #56402A",
"; c #5A422B",
/* pixels */
"@+oX++@#&-#+o+--@+**@@@&*+#@o.++@$@$@o@@",
"@@#ooo@@;$-*X@#X++@+.@##@&=*+oo@-oXoo@o#",
"o&#o@..@@@#$#@ .#$+#.o@+@--oo@%%@Xo#o&#@",
"@@o##.@#X@o##$@ooo+&@@+ &%&o+@+@@o@#@#@@",
"o o@+@*@@-oX$@X@@o@@@++ @#&#%*@oo@&$--@@",
"o  .#;@+$#@$@oo##+X+@@&+oo@&*&#%+@&&$+++",
"@+@@@&. +&*###&+XoX #&&oo.o*%o#oX+@$@@@#",
"@#&#&* #*;;&$-$#@#@Xo@o @o#&%o&@XoX@$#$+",
"@#**=&o-&@%&*$*-o&@#o@#$@o%#%oo&O@O@-+##",
"#+#&;&o.oo+.+#@####+$&@@**##&#&-$$+@#@+#",
"++@*#-+ O++O+++@o#@X@oo##oo@&-#-@@$#@-+@",
"O+++##   @@@@#+@o-@o@$$oo oo##@&@@@@@@+ ",
"++ @$##o@$##**##oo@##&#o +XX##o&X++#$@ +",
"+++XX+@+&#&**###X @-#@o ++X+o#@oX@$-$##+",
"@#$ +@X#&@@+-&@+Xoo-&#Xo#+@@$+ooX@###+#+",
"*$@+o@&-@+@.@#X +o###-+$+@$-#+X@#+@#+@#$",
"@##@oo@o$$o+@o#%@###ooo##oo  X+#&&#o@###",
"oo#%&o#o@&#@oX&&o##-ooo;#@Xo# o-&o##&#++",
"#oXXoo&&ooo.oo&oo&ooXo--# X$@oo##@#+@o##",
"#%Xooo#&+X+ oo.Xoooo. Xo@@@$$-oX.. ..@&*",
"&&.ooXo#o Xo#X.ooo@ooo#o-@#&&o#o++##o@&#",
"-##%o&#&o+@@@o.ooXooo@@-@XXo&o&@ $*++@*#",
"#.&&X&&o o#@o@.@o@@oo$X@$@o@o@&#@+.+$*&#",
"@.o@#oo@+XoooX.+Xooo@#oooX&#Xoo@#+#+$###",
"...oo..&@&@@@@+.+#++#+XX X%+@-##$@++***@",
"o...ooo+%&=&%*@X+ ##@X o&;@X##--*@@+++@@",
"#&@o..o@&&&%&@oo+##$@+$&-;o  +$##+@#... ",
"@&@+&..o&&@@@o.+-&##+#$X&; #&+@@+.*&#@@+",
"@&*@ooo. +&@o++o@o@@+--##@+;& @@o@&*+@+#",
"=*@.@@@@oo@@+.oo+@$+#-$@-#+$#X+-*&+o@#**",
"&@.@@..ooo@#*+.Xo&-&@##@ +@@O@+;-+++#-$*",
"@&=+.oo.@o@#@&+@+@@@#++X++@@@#@++#++##@@",
"@&#+  #@@#o%o@@#####@+O+$#$#.#*&&&X @+@+",
"@+@Xo@@@&##%#o#@$*$@O# +@--$#&#*-@+++X@*",
"*#@@o#X++##&o##%+X+X@+@+@o@#o&;@&&#+ Xo*",
"**@@X#-$o.ooo.o&X @&$$#&#+@@X%*.@$$$##%#",
"%@+o+@o    Xo%o X%&%&o--#o&+#ooo+ o-#-o@",
"# @%##X@o o#*o@ooooo*ooo#+&#@#@oXXo-##o*",
"&o#o+ @$@$#$&o@##Xo;&&#Xo@@##ooo+@@-oo#;",
"@.@  +@##&#o .@@#o&;oo#@@#@&o@+.#@@#oooo"
};
