/* XPM */
static char *_4231_removebg_preview_resized[] = {
/* columns rows colors chars-per-pixel */
"40 40 98 2 ",
"   c None",
".  c #251304",
"X  c #2A1505",
"o  c #2E1903",
"O  c #23170F",
"+  c #2B1608",
"@  c #2E180A",
"#  c #321B05",
"$  c #331B0A",
"%  c #3A1E0C",
"&  c #261911",
"*  c #281A11",
"=  c #3E210E",
"-  c #342215",
";  c #3C2413",
":  c #362519",
">  c #392718",
",  c #3B291C",
"<  c #421F0D",
"1  c #43220E",
"2  c #4B250E",
"3  c #4F280D",
"4  c #50270F",
"5  c #53290F",
"6  c #592D0F",
"7  c #442511",
"8  c #4B2711",
"9  c #432813",
"0  c #4C2B14",
"q  c #442719",
"w  c #432B1C",
"e  c #522D14",
"r  c #5B2E11",
"t  c #512E1B",
"y  c #4F3319",
"u  c #543117",
"i  c #5D3113",
"p  c #573218",
"a  c #5A3519",
"s  c #5F381B",
"d  c #623212",
"f  c #6B3713",
"g  c #6D3914",
"h  c #61371A",
"j  c #623A1C",
"k  c #6A3E1D",
"l  c #733D15",
"z  c #783F15",
"x  c #713F1C",
"c  c #553421",
"v  c #5B3723",
"b  c #5D3B22",
"n  c #5A3928",
"m  c #623B23",
"M  c #67421D",
"N  c #6B401F",
"B  c #764016",
"V  c #7B4116",
"C  c #754119",
"Z  c #7A441A",
"A  c #72481E",
"S  c #7C491D",
"D  c #5F402B",
"F  c #614020",
"G  c #6E4220",
"H  c #64412D",
"J  c #68432D",
"K  c #724522",
"L  c #764822",
"P  c #7B4B24",
"I  c #74482B",
"U  c #6B4731",
"Y  c #7A5236",
"T  c #77543D",
"R  c #7A553D",
"E  c #7D5941",
"W  c #834617",
"Q  c #844718",
"!  c #864919",
"~  c #894D1A",
"^  c #8E511C",
"/  c #92551E",
"(  c #95581F",
")  c #824E24",
"_  c #825124",
"`  c #8C5622",
"'  c #8C5825",
"]  c #84562F",
"[  c #8B5A2C",
"{  c #915722",
"}  c #955A22",
"|  c #9A5D23",
" . c #945D28",
".. c #9D6225",
"X. c #9D6429",
"o. c #A16526",
"O. c #A26728",
"+. c #A3682A",
/* pixels */
"                                                                                ",
"                              +.+.o.o.+.o.o.+.+.                                ",
"                          +.o.o.o.o.o.o.o.o.o.o.o.+.                            ",
"                        o.o.o.o.o.o.o.o.o.o.o.o.o.o.o.+.                        ",
"                        o.o.o.o.o.o.o.o.o.o.o.o.o.o.o.o.+.                      ",
"                      +.o.o.o.o.o.o.o.o.o.o.o.o.o.o.o.o.o.                      ",
"                  o.o.o.o.o.o.o.o.o.o.| ( | | o.o.o.o.o.                        ",
"              +.o.o...( ( | o.o.o.( ~ Q Q Q Q ~ ^ | o.o.+.X.+.                  ",
"            +.o.o.| ! l B ! { o.o.~ W W W W W W W Q ( o.o.] [ o...+.            ",
"            o.o...~ V ; , C ^ | / ! W W W W W W W W Q o. .R Y _ ......          ",
"            o.o.| Q B > : b ~ ~ Q Q W W W W W W W W Q ( ) R H > m | ~ {         ",
"            o.o.| Q V ; - 0 W V g d d g z W W W W W Q Q C n , : > l V /         ",
"            o.o.| Q V 0 * e l 5 2 e e 8 0 d z W W W W W B c w & O 0 V |         ",
"            +.o.o.~ W 6 % 2 8 e 0 p j 0 0 p r f z V z z g j k - - i ^ o.        ",
"              +.o.| ! i 8 i K s 0 a h 0 0 s K h 5 5 8 < 8 8 d l h ! |           ",
"                o./ Q d p K P j u s j 0 e s P P h t e 0 p r 0 4 z | +.+.        ",
"              o...! W 6 u K P s e s s 0 u s P L s p u y a u 0 e W ^ ` o.o.+.    ",
"            +.o.( ! g 7 u G P h u s j 0 u s P L a a u u a u 8 r W Q ^ o.o.o.+.  ",
"        +.o.( ~ W l 2 = 0 G L j u j j 0 p j P L a a p p a e 7 e W ~ | o.o.o.o.  ",
"      o.../ V V d 1 = = u N L s u j j y p j P K a p p p a e 1 < g W Q ^ | o.o.  ",
"    +.o.( Q B 3 % # = 1 0 N L p p j j u u j P G p p p a a 0 % @ % 4 g W ~ o.    ",
"    o.o.~ W W i # # = = 0 M L p a j j 0 u j P G p p a a p 9 $ + . . # l ~ o.    ",
"  o.o.o.( ~ Q V = o = = 0 M L u u j j u p s P j p p a p u 7 $ @ X . % z }       ",
"+.o.o.o...~ M V 3 o # = 9 j L 0 u a j u u a P j p p a p 0 % $ @ . X g { o.+.    ",
"o.o.o.o.o.M > N 6 # # = 1 s L 9 7 e j u 0 p P j 0 u a e 9 % @ $ + < d ~ ..o.+.  ",
"    +.o.O.A > j 6 # o = = u L 0 % 0 s t 7 p P h 0 e a 7 7 % % 1 e f V W ^ ..o.  ",
"    +.o...S H T p # X @ $ 7 M 8 % 0 p e ; e L a ; 0 t 7 7 t J g S W ^ ( ..o.o.+.",
"    o.o.~ f U R b # X + @ = p 2 % 0 8 ; 7 0 j 0 % 7 9 1 < v T ) S / ..o.o.      ",
"    o...^ S H R m % X X @ ; e 8 % 8 9 ; ; 0 e < % % ; < d m J ) ....X.X.+.      ",
"    o.X...' n H m 5 . X % < < < % < < < < t e ; $ % < r L Z G  .s M X.o.        ",
"    +.X.....L a k z < 4 r d d d r 4 2 < < 4 0 ; $ % 5 I E  .o...y , ' o.+.      ",
"          ..X.X.| ! z l Q Q ! W W W z f 4 < 1 ; @ 8 l Y T ) o.+.M - ` o.o.o.    ",
"        o.o.o.o.o./ W B ~ | ....| ( ^ ! B i < < % d l m b k [ [ _ ) ..o.o.o.    ",
"        o.o.o.o.o...~ W ~ ..o.o.o.o.o...( ! l i 5 i g p q K ' _ [ o.o.o.o.+.    ",
"      +.o.o.o.o.o.o.| ! ! | o.o.o.o.o.o.o.o.( ! W W Q Z L ..o.o.o.o.o.o.o.      ",
"        o.o.o.o.o.o.o...| o.o.o.o.o.o.o.o.o.o.o.} / / | o.o.o.o.o.o.o.o.        ",
"            +.o.o.+.      +.+.o.o.o.o.o.o.o.o.o.o.+.+.o.o.o.o.o.o.o.o.          ",
"                            o.o.o.o.o.o.o.o.o.o.+.    o.o.o.o.o.o.o.            ",
"                              +.+.o.o.o.o.+.+.      +.o.o.+.o.+.                ",
"                                                                                "
};
