/* XPM */
static char *images_resized[] = {
/* columns rows colors chars-per-pixel */
"40 40 10 1 ",
"  c #000000",
". c #010101",
"X c #020202",
"o c #030303",
"O c #040404",
"+ c #050505",
"@ c #060606",
"# c #070707",
"$ c #080808",
"% c #111111",
/* pixels */
"%%%%%%%%%%%%%%%%%%%%%%%%%%%%%%%%%%%%%%%%",
"........................................",
"XXX.XXoXXXXXXXXXXX.ooXXXXXXXXXX.Xo.XXXXX",
"...  o@...........X$X.......... @O .....",
"... .@o...........#+ ......... o$X .....",
"....++ ..........o@........... Oo.......",
"... .. ..........XX........... X .......",
".... .. ..............X............X....",
"....... O. ......... Oo ..........X+ ...",
"....... X.............X............X ...",
".............X...........  ...........  ",
"........... +........... Oo ..........X+",
".......... O@ ..........o$X.......... #O",
"..........o#X ..........$+ ..........+@ ",
"......... oo  .........XO .. ........O  ",
"...........X................  ....... ..",
"..........  ................XX..........",
"..O............O. ..........XO..........",
".XX........... X............XX..........",
"..............  ........................",
"..... .............X............ .......",
"......O........... +X.......... Xo......",
".... @@ ......... o#............$o .....",
"... o$...........X$o ......... +# ......",
"... oo ......... O@ .........  O........",
"...X..............X.....................",
".... ...X.........XX.XX......X. ...X....",
"....... OX.......... oo ...........+ ...",
".......    ...........X............X....",
"........ .. X............X...........X.X",
"............+X...........@o.........X o+",
".......... @+ ..........+#...........o$X",
"......... O+ ..........X#o ......... +O ",
"..........XX............o ...........X..",
".. ...........  ........ ...  ..........",
".Xo........... X. ..........Xo..........",
".XO............o. ..........oO .........",
"........................................",
"........................................",
"........................................"
};
