/* XPM */
static char *color05_orange_carrot_resized[] = {
/* columns rows colors chars-per-pixel */
"40 40 107 2 ",
"   c None",
".  c #BF4714",
"X  c #BF4817",
"o  c #BE4818",
"O  c #CD4C0F",
"+  c #CE4C0F",
"@  c #CE4D0F",
"#  c #DB4F06",
"$  c #D64F0A",
"%  c #D04D0D",
"&  c #D34F0C",
"*  c #D34F0D",
"=  c #DF5205",
"-  c #DD5006",
";  c #DD5207",
":  c #DE5306",
">  c #DF5D02",
",  c #D7510B",
"<  c #DB5208",
"1  c #C54912",
"2  c #C44913",
"3  c #C74B13",
"4  c #C34A15",
"5  c #C04917",
"6  c #C14A17",
"7  c #C24A16",
"8  c #C44B14",
"9  c #C54C15",
"0  c #C94B11",
"q  c #C94C11",
"w  c #CA4E13",
"e  c #CD4F11",
"r  c #CE4F10",
"t  c #C84D14",
"y  c #C04A18",
"u  c #E55101",
"i  c #E75100",
"p  c #E55201",
"a  c #E75200",
"s  c #E75300",
"d  c #E65301",
"f  c #E45302",
"g  c #E55302",
"h  c #E35403",
"j  c #E35503",
"k  c #E65401",
"l  c #E65501",
"z  c #E75600",
"x  c #E65601",
"c  c #E45402",
"v  c #E55402",
"b  c #E55502",
"n  c #E65502",
"m  c #E65702",
"M  c #E05104",
"N  c #E15304",
"B  c #E05205",
"V  c #E25304",
"C  c #E15404",
"Z  c #E15405",
"A  c #E35604",
"S  c #E85200",
"D  c #E85300",
"F  c #E95300",
"G  c #E85400",
"H  c #E95400",
"J  c #E85500",
"K  c #E95500",
"L  c #EA5400",
"P  c #EB5400",
"I  c #EA5500",
"U  c #E85600",
"Y  c #E95600",
"T  c #E85700",
"R  c #E95700",
"E  c #E15C02",
"W  c #E95800",
"Q  c #E95900",
"!  c #EA5900",
"~  c #EA5A00",
"^  c #DA6204",
"/  c #C87408",
"(  c #7FB81A",
")  c #7EB91A",
"_  c #7FB91B",
"`  c #AD8D0F",
"'  c #BF800B",
"]  c #BB800C",
"[  c #B1890E",
"{  c #9AA516",
"}  c #90AA17",
"|  c #83B519",
" . c #86B61A",
".. c #81B91B",
"X. c #81BA1B",
"o. c #81BB1B",
"O. c #82BB1B",
"+. c #82BB1C",
"@. c #83BB1C",
"#. c #81BC1C",
"$. c #83BC1C",
"%. c #83BD1D",
"&. c #84BC1C",
"*. c #84BC1D",
"=. c #85BD1D",
"-. c #86BD1D",
";. c #87BE1E",
/* pixels */
"                                                                                ",
"                                                                                ",
"                                                                                ",
"                                                                                ",
"                                                        ;.*.      +.            ",
"                                                      -.-.$.  *.=.=.            ",
"                                                      #.X.$.$.$.-.              ",
"                                                K P / } ) +.+.@.=.              ",
"                                          U Y J J U G ^ `  .o.O.&.&.$.*.        ",
"                                        G D J G G U G I z ] | _ $.=.*.          ",
"                                      G G S i D G U U Y K z [ ( *.&.$.          ",
"                                    $ b H G G G J G a G D F > { %.O.$.*.        ",
"                                  e 6 4 ; G D G J Y D G G G L ' ..+.&.          ",
"                                G U h O & G G U U R U a J W R E                 ",
"                              J J G H U U J D U R W Y D R T l F                 ",
"                            J Y R U Y R R Y R Q W W W R K B 3 ;                 ",
"                          R U Y R U J R R R W Q R W R Y J p 0 5                 ",
"                        U Y G G G J W W W W ! ! Q W U R R R C 7                 ",
"                      d H G U U U U R Q R R W Q R R Y R R W !                   ",
"                      1 # s D G U G R W U Y U G D G R K R R                     ",
"                    - q o + u U Q U J R U U U D S g & V R Y                     ",
"                  G Y J < @ c H Y U K U G U J G H f 2 1 v                       ",
"                G U U J H Y W Y J D D G S J J U Y K M .                         ",
"              G J U J J G U W J S a a J D Y W R J J G                           ",
"              J Y U R R J J Y J J G S G U Y ! ! Y U                             ",
"            k R Y Y W U U J R R R K Y Y R R W R R                               ",
"          X 8 , n U Y J G J U Y U m n K U J U                                   ",
"          = % y r T Y J G Y J Y K * 9 Z H i                                     ",
"          Y H N : R Y Y U W J J R j w t x                                       ",
"        R R J K Y W W Y Y U S G R R A                                           ",
"        R Y J Y Y Y G D a G J U R ~                                             ",
"        U G J U J J G D G J Y G                                                 ",
"        J G J Y G G G G Y W                                                     ",
"        U G G Y J R W Y Y                                                       ",
"        Y J J U Y Y W                                                           ",
"        G D Y U                                                                 ",
"                                                                                ",
"                                                                                ",
"                                                                                ",
"                                                                                "
};
