/* XPM */
static char *usagi_260x400_resized[] = {
/* columns rows colors chars-per-pixel */
"40 40 77 1 ",
"  c None",
". c #2F1E1A",
"X c #301F1B",
"o c #32211D",
"O c #362521",
"+ c #3A2926",
"@ c #3D2D29",
"# c #42322E",
"$ c #453532",
"% c #473834",
"& c #493A36",
"* c #4C3D39",
"= c #4F403D",
"- c #524340",
"; c #574945",
": c #5B4D4A",
"> c #5E504D",
", c #60524F",
"< c #615451",
"1 c #665956",
"2 c #695D5A",
"3 c #6D615E",
"4 c #6F6361",
"5 c #706462",
"6 c #756967",
"7 c #796D6B",
"8 c #7B716E",
"9 c #7D7270",
"0 c #807673",
"q c #827876",
"w c #857B79",
"e c #887E7C",
"r c #8A807E",
"t c #8D8482",
"y c #908784",
"u c #928987",
"i c #958C8A",
"p c #9D9593",
"a c #A09896",
"s c #A59E9C",
"d c #ACA5A3",
"f c #AFA8A7",
"g c #B2ABAA",
"h c #BBB6B4",
"j c #BDB8B7",
"k c #BFBAB9",
"l c #C3BEBD",
"z c #C5C0BF",
"x c #FEC9B7",
"c c #FECBB9",
"v c #C6C2C1",
"b c #C9C5C4",
"n c #CCC8C7",
"m c #CECAC9",
"M c #D1CDCC",
"N c #D3D0CF",
"B c #D5D1D1",
"V c #D8D4D4",
"C c #DDDAD9",
"Z c #FED3C4",
"A c #FED7C9",
"S c #FED9CC",
"D c #E0DDDD",
"F c #FEDDD1",
"G c #FEE0D6",
"H c #FEE3DA",
"J c #E4E2E2",
"K c #E9E7E7",
"L c #EDEBEB",
"P c #FFEBE4",
"I c #F1EEED",
"U c #FFEFE9",
"Y c #FFF1ED",
"T c #F5F4F4",
"R c #FEF6F3",
"E c #FFF9F7",
"W c #FFFFFF",
/* pixels */
"    O1w02&                    *29e1O    ",
"    qLWEIMp:                >pNIEWK9    ",
"   %VWWWWWWJu#            $iJWWWWWWM$   ",
"   :LWWEUUEWWh=          -jWWEUUEWWL;   ",
"   -KWWSccZHEWl&        *vWEHZcxFWWJ*   ",
"   +kWEZxxxxSEWd+      +fWEScxxxZEWh+   ",
"    6TWFxccccHWT5      6TWHxcxcxFWT4    ",
"    +sWEZxccccRWj+    @lWRcxxcxZEWp+    ",
"     $gWRScxccUWL:    >TWUccccSRWd$     ",
"      $pTWPZccUWWw+  +rWWUccAPWTp$      ",
"       +9VWEYYWWWKnMMnKWWEYYEWB7+       ",
"        +wTWWWWWWWWWWWWWWWWWWTq+        ",
"      %qbTWWWWWWWWWWWWWWWWWWWWTv9%      ",
"     5bEWWWWWWWWWWWWWWWWWWWWWWWWEb4     ",
"   @iLWWWWWWWWWWWWWWWWWWWWWWWWWWWWLu@   ",
"  @pEWWWWWWWWWWWWWWWWWWWWWWWWWWWWWWWp+  ",
" XrEWWWWWWWWWWWWWWWWWWWWWWWWWWWWWWWWEeo ",
" ;JWWWWWWWWWWWWWWWWWWWWWWWWWWWWWWWWWWJ; ",
".iWWWWWWWWTnnTWWWWWWWWWWWWTnnTWWWWWWWWi.",
"@bWWWWEEWWi++iWWWWWWWWWWWWi++iWWEEWWWWb@",
"*DWWPAZZFYi++iWWWWWWWWWWWWi@+iYFZZZPWWC*",
"-JWPcxxxxZIMMTWWWEd66dEWWWTnnIZxxxccPWJ=",
"$BWHxcccxcYWWWTLWEr++rTWLTWWWRcccxcxHWB$",
"OgWEScxccHWWWWm9BLB<<BLB7bWWWWHcxccSRWfO",
" 2IWWYPPRWWWWWEhuuuggttujEWWWWWRPPUEWT2 ",
" OiEWWWWWWWWWWWWWTWWWWEWWWWWWWWWWWWWEiO ",
"  @yLWWWWWWWWWWWWWWWWWWWWWWWWWWWWWWLt@  ",
"    1gKWWWWWWWWWWWWWWWWWWWWWWWWWWKg1    ",
"      <yhCLEWWWWWWWWWWWWWWWWEIChy<      ",
"         -2qtagjlbbnnnbljgat92-         ",
"            &fkgfdsdsssfglf%            ",
"           @gWWWWWWWWWWWWWWg@           ",
"           9EWWWWWWWWWWWWWWE8O;*        ",
"          *nWWWWWWWWWWWWWWWWn:dMt+      ",
"         >nWWWWWWWWWWWWWWWWWWn5bL;      ",
"        ofWWWWWWWWWWWWWWWWWWWWd6s#      ",
"        .pWWWBpEWWfbbfWWEpBWWWpO        ",
"         &dLWL4vWWtpptWWl4LWLd&         ",
"           2ig9<CWp55pWC<9gi1           ",
"               X<e>Oo>e<X               "
};
