/* XPM */
static char *pattern_shibafu_resized[] = {
/* columns rows colors chars-per-pixel */
"40 40 83 1 ",
"  c #74A92C",
". c #75AA2C",
"X c #75AA2D",
"o c #75AB2D",
"O c #76AB2D",
"+ c #77AB2D",
"@ c #76AB2E",
"# c #77AB2E",
"$ c #76AC2E",
"% c #77AC2E",
"& c #78AC2E",
"* c #79AC2E",
"= c #78AD2E",
"- c #79AC2F",
"; c #78AD2F",
": c #79AD2F",
"> c #7AAD2F",
", c #7BAD2F",
"< c #79AE2F",
"1 c #7AAE2F",
"2 c #79AE30",
"3 c #7AAE30",
"4 c #7BAE30",
"5 c #7AAF30",
"6 c #7BAF30",
"7 c #7BAF31",
"8 c #7CAE30",
"9 c #7CAF30",
"0 c #7CAF31",
"q c #7DAF31",
"w c #7EAF31",
"e c #7BB031",
"r c #7CB031",
"t c #7DB031",
"y c #7EB031",
"u c #7FB031",
"i c #7DB032",
"p c #7DB132",
"a c #7EB032",
"s c #7FB032",
"d c #7EB132",
"f c #7FB132",
"g c #7EB133",
"h c #7FB133",
"j c #7FB233",
"k c #80B032",
"l c #80B132",
"z c #81B132",
"x c #80B133",
"c c #81B133",
"v c #82B133",
"b c #80B233",
"n c #81B233",
"m c #82B233",
"M c #80B234",
"N c #81B234",
"B c #81B334",
"V c #82B234",
"C c #83B234",
"Z c #82B334",
"A c #83B334",
"S c #82B335",
"D c #83B335",
"F c #84B234",
"G c #84B334",
"H c #84B335",
"J c #85B335",
"K c #86B335",
"L c #83B435",
"P c #84B435",
"I c #85B435",
"U c #85B436",
"Y c #85B536",
"T c #86B436",
"R c #87B436",
"E c #86B536",
"W c #87B536",
"Q c #86B537",
"! c #87B537",
"~ c #87B637",
"^ c #88B637",
"/ c #89B637",
"( c #89B638",
/* pixels */
":<25573f0<rx<<23;=t2;=45<s<=25;x@.::3d7r",
";4Ix353f0htn71-c7rP3@;ng760mn<sd74C<1c4r",
";:w4<A675f1yDc-4rre5&4fr3itZV7x:ss3;9:4q",
":4*;<a6ct36rpia2^TZt$y(V6c<625<:=:a3x4qs",
"s(f;23<3<772<qh5Bhjii=198>&Nff593243<==&",
"3i24lVa3=<CC3db6d!S3Zy3cq1%SLPdS730VItV3",
"$49sAf9;O%y0rrtrdLj:rr<<2;<5r77r66raf693",
"3bst72xx4O:adN5x5JH6x06<ixs<rZdgeBVdb36r",
"er<:<304:26qtf:0$-*<3:Ub0ta97QPP<00rr660",
"ZBx3DUt;s65<l:;:%%O18<r150HA3ii6%>CArHxV",
"st06Nbp70%@&s=yRs:9>*36-949<-mDfs&4f>f00",
":;<e<fgb6w&&;27sq:A;OqH9yqs604>3:$$%&:33",
":3-%=bgN7t3bVl=l1=<<;=1:%%2ql61%:AVN3%C5",
"%TJ:136<:r6709:q:6444=+-3ajt<yHidPZh&3qO",
"59-%C4cs8UEqdf556Jsmx;uknxhd66dVbexq&m:O",
"<;%<a3q4<iMjjZ7563Vi326:qsfb025pp65<&r5;",
"%;7d5;32t3jD5rd6r6f6<6<Owbty4<::1;<h5tt:",
";I4ffnd<l3dgpjP76P76Dg03a8;<qy=8F03E:al%",
"%9::7ar2<0!~gU14ybr5a54a:slhqt20x035;3e2",
"81%;dJx5V3:3r5$4043at<26<bqa<<:0/l-Z:trl",
"cs4:58939<:;3<<@O0>4757<:<:n6=,8y<#76W3a",
"w0;Nf%wwa;nVG=u=&:qy5t::>9=954Vbd4wO2077",
"zu:t9=457=377<t66ixl3uOuC>X81:;3:O#&47hc",
"xS04=&<:r0:;07eeta-fOo@:::6246;Cbn%>w&<4",
"cH3q4q9,nb23^PYraa=4:&31qsbabt;8aa$@===<",
";<53%w4$3PQijgh:3f0rh9c0275<63365&=;aq1<",
"<=9s%;:12hfrlaqq3PUtI9&33xy&fN:22&:1vVBw",
"=k1=-DxV0Z<5fxaf25;<7:@=3;#@mW49HAD<%:x3",
"34;;=u<3<4::<566tr45ra5<:sa404$1yaN<:%c-",
"22<:<%=<631%4s<3IWAt3G0%%wBgNx&=:e69&%%O",
"HfAx6xPZVnl&&lxf5fd327r2;<pr75%sb20/xc=%",
"DiB03aNf6:&:%;36<9qrh6hA22Ed773mc<;073:$",
":4Z566723w;;asa5y<:TT33b76p7673%:=894;:q",
"&%$5fHd<<y%O9aa<x:%-=37r7rgpp<fZ1<RCl35J",
":xb5dV0:%lHy:7i2;>kwVx7PHSYNx<aBVtrf9352",
";IT9:o&;&ASa:fB3558-6;7fqt=>83;;5&&46575",
";3<66=%;&;;=;:153%;7r&<3;:$qK4&;l1336d76",
"27Vr6<a33c&1224Pr3a::q3==y4=%>&$w:sctU2<",
"62V0a5n435d!Prc03tY61s18>3q43sq%.unn;B3<",
"<&<5Ar5353txd18 wSrp5;::1<Cwq&23Owax;b::"
};
