/* XPM */
static char *tree_mark_top_resized[] = {
/* columns rows colors chars-per-pixel */
"40 40 127 2 ",
"   c None",
".  c #3F7727",
"X  c #3F7827",
"o  c #407A27",
"O  c #407828",
"+  c #407928",
"@  c #417928",
"#  c #417A28",
"$  c #417A29",
"%  c #417B29",
"&  c #427B29",
"*  c #427B2A",
"=  c #417C29",
"-  c #427C29",
";  c #427D29",
":  c #437E29",
">  c #437F29",
",  c #427C2A",
"<  c #437C2A",
"1  c #437D2A",
"2  c #437D2B",
"3  c #437E2A",
"4  c #437F2A",
"5  c #447D2A",
"6  c #447D2B",
"7  c #447E2A",
"8  c #447F2A",
"9  c #447E2B",
"0  c #457E2B",
"q  c #447F2B",
"w  c #457F2B",
"e  c #457E2C",
"r  c #457F2C",
"t  c #467F2C",
"y  c #44802A",
"u  c #44802B",
"i  c #45802B",
"p  c #45812B",
"a  c #45822B",
"s  c #46822B",
"d  c #45802C",
"f  c #45812C",
"g  c #46802C",
"h  c #46812C",
"j  c #46802D",
"k  c #46812D",
"l  c #47812D",
"z  c #46822C",
"x  c #47822C",
"c  c #46832C",
"v  c #47832C",
"b  c #47822D",
"n  c #47832D",
"m  c #47842C",
"M  c #47842D",
"N  c #47862C",
"B  c #47872C",
"V  c #48832D",
"C  c #48822E",
"Z  c #48842D",
"A  c #48852D",
"S  c #48872C",
"D  c #48862D",
"F  c #49862D",
"G  c #48842E",
"H  c #48852E",
"J  c #488A2B",
"K  c #49882D",
"L  c #49892D",
"P  c #488A2C",
"I  c #498A2C",
"U  c #488B2C",
"Y  c #498B2C",
"T  c #498A2D",
"R  c #498B2D",
"E  c #4A8A2D",
"W  c #4A8B2D",
"Q  c #49892E",
"!  c #4A882E",
"~  c #4A892E",
"^  c #4B892F",
"/  c #4A8A2E",
"(  c #4A8B2E",
")  c #4B8B2E",
"_  c #4B8A2F",
"`  c #498C2C",
"'  c #498C2D",
"]  c #498D2D",
"[  c #4A8D2D",
"{  c #4A8E2D",
"}  c #4B8E2D",
"|  c #4A8C2E",
" . c #4B8C2E",
".. c #4B8D2E",
"X. c #4B8C2F",
"o. c #4B8E2E",
"O. c #4B8F2E",
"+. c #4C8C2F",
"@. c #4C8D2F",
"#. c #4C8E2E",
"$. c #4C8F2E",
"%. c #4C8E2F",
"&. c #4C8F2F",
"*. c #4D8F2F",
"=. c #4C902E",
"-. c #4C902F",
";. c #4D902F",
":. c #4D912F",
">. c #4D8E30",
",. c #4D8F30",
"<. c #4E8F30",
"1. c #4D9030",
"2. c #4D9130",
"3. c #4E9030",
"4. c #4E9130",
"5. c #4F9031",
"6. c #4E9131",
"7. c #4F9131",
"8. c #4E9230",
"9. c #4F9230",
"0. c #4F9330",
"q. c #4F9231",
"w. c #4F9331",
"e. c #509331",
"r. c #509431",
"t. c #509432",
"y. c #519432",
/* pixels */
"                                                                                ",
"                                                                                ",
"                                <.k l j g 0 n                                   ",
"                              y.3.g 0 g l 0 A 4.                                ",
"                            :.4.%.7 1 g l j A 9.4.w.;...x 0                     ",
"                  & , f *.0.8.:.%.q 9 0 t t v 2.8.e.w.#.z 1 %                   ",
"                O O 5 h ..:.;.:...q 6 9 j l H q.e.9.0.&.z , % %                 ",
"              , 1 < < h 1.=.-.-.%.i & g C t z 4.9.:.w.6.h * & $                 ",
"              6 9 5 # o o.0.4.-...i 1 t g g 8 *.4.:.w.e.b 9 & O                 ",
"              & 1 2 & i 1.4.;.$.&.i 0 g t e ; Y o.2.4.4.i * < & *               ",
"          &.p 1 w < 9 x *.4.4.:.*.i 0 r j < 7 ..=.O.O.;.8 $ 6 w 1 q J           ",
"        :.2.M e 9 1 r i #.:.:.:.*.i , < 6 2 f ..[ } } &.u & % , , 3 U =.        ",
"      9.8.8.Z t 1 0 0 q #.-.2.:.[ ; X $ & < 1 I $.-.O.} 4 , * $ < h ..-.8.      ",
"      ;.8.;.z 6 @ . < n ;.$.-.4.#.8 , 2 + O ; | :.4.-.} y % , 6 t z &.-.;.4.    ",
"    ] ;.0.;.p , + # < = ' $.;.:.;.i 1 & O $ - ..2.4.-.o.4 + < 1 t b *.O.$.;.    ",
"    $.$.;.{ : * < < # o ' } [ -.*.q < 6 2 , 7 @.:.9.2.$.> @ * $ # q #.;.2.2.    ",
"    4.{ { ` > < < * # q &.:.-.:.&.p < 6 % + < | 8.;.O.-.a < 0 t 1 1 I ;.0.e.    ",
"      $.o.{ p < < < , f ;.8.2.;.&.x , * 1 9 g @.8.;.{ $.A 9 < r r d W 8.4.      ",
"      :.;.O.v e 6 < % 8 &.0.e.w.1.h 1 1 6 t j | $.o.$.o.c 5 % w j k ..;.:.      ",
"        8.&.s < 0 6 1 u #.=.9.w.&.x 9 6 < 9 w T O.$.$.$.m % $ 1 t g @.-.o.      ",
"        9.;.a , 0 0 0 G 4.-.:.4.7.Z < 9 < 1 d @.:.-.O.$.m @ $ , t l ..;.;.      ",
"      =.2.{ 4 * r t & q [ O.-.:.8.h * 6 < < < X.;.} $.-.N $ 6 1 r g W 4.:.      ",
"      4.8.$.y $ , r < 7 R ] O.$.3.z 6 * , < < X.;.} o.=.! < 6 9 0 g @.w.8.$.    ",
"    4.0.e.2.c 9 6 6 1 i #.} ;.;.;.h 1 $ X & - / -.o.o.9._ 0 1 6 9 w @.8.4.=.    ",
"    4.w.t.2.A 6 < , & 8 7.4.8.8.&.3 + * & 1 < L ;.$.O.;.Q 9 & < < 2 %.:.;.-.    ",
"    0.4.;.$.D 6 # & * 3 6.e.y.8.3.p < < 0 g 9 E ;.$.o.$.B * 6 < < 9 ,.;.$.}     ",
"      ;.;.9.F 9 & * < h 7.e.w.w.7.8 * * , 9 9 ( -.:.4.$.S 1 6 6 9 g 3.4.;.      ",
"      8.0.e.^ l 9 w 1 h 1.w.8.9.q.u @ t g 6 r / =.:.4.-.) r r r e i 6.0.:.      ",
"        0.8.~ 6 < 6 1 i 7.e.w.e.4.Z 6 6 , , 0  .-.:.w.0.@.w r 0 6 7 %.9.        ",
"            A 6 t t r b 7.w.8.9.8.Z 9 % $ @ < X.0.8.-.;.@.w 0 0 0 w             ",
"              r j r 9 z q.e.8.w.6.p 6 9 < $ < +.9.8.9.8.>.r 9 , 6 0             ",
"              0 t 0 g G 7.t.r.t.o.x 0 0 t 9 9 ) =.4.w.e.5.l r 2 9 r             ",
"              j g w 9 n q.r.w.0.#.h e 0 e g l ) -.-.;.9.7.V t 2 g               ",
"                6 6 6 h ,.4.-.4.;.z 6 r g r b +.8.8.9.9.6.V r <                 ",
"                  , 9 w P O.` ] #.p % 6 t 9 r +.w.9.  8.&.h 6                   ",
"                                &.p < 0 0 2 9 / w.                              ",
"                                  8 $ 2 6 w 6 K                                 ",
"                                      & < 9                                     ",
"                                                                                ",
"                                                                                "
};
